<?xml version="1.0" encoding="utf-8"?>
<!-- Generator: Adobe Illustrator 19.0.1, SVG Export Plug-In . SVG Version: 6.00 Build 0)  -->
<svg version="1.1" id="Layer_1" xmlns="http://www.w3.org/2000/svg" xmlns:xlink="http://www.w3.org/1999/xlink" x="0px" y="0px"
	 viewBox="456.3 328.4 47.1 60" style="enable-background:new 456.3 328.4 47.1 60;" xml:space="preserve">
<path d="M499.6,369.8c0,0.5-0.1,1.2-0.3,2c-0.2,0.8-0.4,1.5-0.6,1.9c-0.4,0.9-1.6,2-3.5,3c-1.8,1-3.5,1.4-5.3,1.4
	c-0.5,0-1,0-1.5-0.1c-0.5-0.1-1-0.2-1.6-0.4c-0.6-0.2-1.1-0.3-1.3-0.4c-0.3-0.1-0.8-0.3-1.6-0.6c-0.8-0.3-1.2-0.5-1.4-0.5
	c-1.9-0.7-3.5-1.4-5-2.4c-2.4-1.5-4.9-3.5-7.5-6.1c-2.6-2.6-4.6-5.1-6.1-7.5c-0.9-1.5-1.7-3.1-2.4-5c-0.1-0.2-0.2-0.6-0.5-1.4
	c-0.3-0.8-0.5-1.3-0.6-1.6s-0.2-0.7-0.4-1.3c-0.2-0.6-0.3-1.2-0.4-1.6c-0.1-0.5-0.1-1-0.1-1.5c0-1.7,0.5-3.5,1.4-5.3
	c1.1-1.9,2.1-3.1,3-3.5c0.5-0.2,1.1-0.4,1.9-0.6c0.8-0.2,1.5-0.3,2-0.3c0.3,0,0.5,0,0.6,0.1c0.3,0.1,0.8,0.8,1.5,2.2
	c0.2,0.4,0.5,0.9,0.9,1.5c0.4,0.7,0.7,1.3,1,1.8c0.3,0.5,0.6,1,0.9,1.5c0.1,0.1,0.2,0.3,0.5,0.7c0.3,0.4,0.5,0.7,0.6,1
	c0.1,0.3,0.2,0.5,0.2,0.8c0,0.4-0.3,0.9-0.8,1.4c-0.5,0.6-1.1,1.1-1.8,1.6c-0.6,0.5-1.2,1-1.8,1.5s-0.8,1-0.8,1.3
	c0,0.2,0,0.4,0.1,0.6s0.2,0.4,0.2,0.6c0.1,0.1,0.2,0.4,0.4,0.7s0.3,0.5,0.3,0.5c1.4,2.6,3.1,4.8,4.9,6.7c1.9,1.9,4.1,3.5,6.7,4.9
	c0,0,0.2,0.1,0.5,0.3c0.3,0.2,0.5,0.3,0.7,0.4c0.1,0.1,0.3,0.1,0.6,0.2s0.5,0.1,0.6,0.1c0.3,0,0.8-0.3,1.3-0.8
	c0.5-0.5,1-1.1,1.5-1.8c0.5-0.6,1-1.2,1.6-1.8c0.6-0.5,1-0.8,1.4-0.8c0.3,0,0.5,0.1,0.8,0.2c0.3,0.1,0.6,0.3,1,0.6s0.6,0.4,0.7,0.5
	c0.5,0.3,1,0.6,1.5,0.9c0.5,0.3,1.1,0.6,1.8,1c0.7,0.4,1.2,0.6,1.5,0.9c1.3,0.7,2,1.2,2.2,1.5C499.6,369.4,499.6,369.6,499.6,369.8
	L499.6,369.8z"/>
</svg>
